<svg width="142" height="20" viewBox="0 0 142 20" fill="none" xmlns="http://www.w3.org/2000/svg">
<g clip-path="url(#clip0_358_64497)">
<path d="M12.6012 0.393066V12.9943H0C0 6.03474 5.64167 0.393066 12.6012 0.393066Z" fill="#027A48"/>
<path d="M12.6014 0.393066V12.9943H6.30078C6.30078 6.03474 9.12205 0.393066 12.6014 0.393066Z" fill="#039855"/>
<path d="M12.6011 0.393066V12.9943H25.2023C25.2023 6.03474 19.5606 0.393066 12.6011 0.393066Z" fill="#32D583"/>
<path d="M12.6011 0.393066V12.9943H18.9017C18.9017 6.03474 16.0804 0.393066 12.6011 0.393066Z" fill="#12B76A"/>
<path d="M31.5029 0.393066H38.2402C42.6331 0.393066 44.7832 3.03232 44.7832 6.51166C44.7832 9.991 42.6148 12.6486 38.2306 12.6486H34.3548V19.2931H31.5029V0.393066ZM37.9724 10.2308C40.7596 10.2308 41.9129 8.65299 41.9129 6.51166C41.9129 4.37033 40.7596 2.83893 37.9357 2.83893H34.3548V10.2308H37.9724V10.2308Z" fill="#101828"/>
<path d="M45.4511 15.289C45.4511 12.0678 48.2015 11.3668 50.8871 11.0527C53.4345 10.7569 54.4679 10.7761 54.4679 9.7698V9.70504C54.4679 8.09926 53.5544 7.1673 51.7727 7.1673C49.991 7.1673 48.884 8.13602 48.478 9.14237L45.8842 8.55168C46.8075 5.96756 49.1693 4.93408 51.7351 4.93408C53.9867 4.93408 57.2358 5.75579 57.2358 9.88094V19.2942H54.5406V17.3559H54.4294C53.9035 18.4174 52.5839 19.6075 50.2395 19.6075C47.5443 19.6075 45.4502 18.0752 45.4502 15.2881L45.4511 15.289ZM54.4767 14.1811V12.3539C54.0803 12.7512 51.9573 12.991 51.0621 13.1109C49.4651 13.3235 48.1551 13.8494 48.1551 15.3257C48.1551 16.6917 49.2813 17.3927 50.8407 17.3927C53.1387 17.3927 54.4767 15.8604 54.4767 14.1811Z" fill="#101828"/>
<path d="M59.4199 5.11841H62.0872V7.37H62.2351C62.7522 5.84735 64.1734 4.90576 65.8343 4.90576C66.1852 4.90576 66.7295 4.93376 67.006 4.97052V7.60977C66.7846 7.54502 66.1388 7.44351 65.5665 7.44351C63.6098 7.44351 62.1799 8.78151 62.1799 10.6367V19.293H59.4208V5.11841H59.4199Z" fill="#101828"/>
<path d="M67.2484 15.289C67.2484 12.0678 69.9988 11.3668 72.6844 11.0527C75.2318 10.7569 76.2653 10.7761 76.2653 9.7698V9.70504C76.2653 8.09926 75.3517 7.1673 73.57 7.1673C71.7884 7.1673 70.6814 8.13602 70.2753 9.14237L67.6816 8.55168C68.6048 5.96756 70.9667 4.93408 73.5324 4.93408C75.784 4.93408 79.0331 5.75579 79.0331 9.88094V19.2942H76.3379V17.3559H76.2268C75.7008 18.4174 74.3812 19.6075 72.0369 19.6075C69.3416 19.6075 67.2476 18.0752 67.2476 15.2881L67.2484 15.289ZM76.274 14.1811V12.3539C75.8776 12.7512 73.7547 12.991 72.8595 13.1109C71.2624 13.3235 69.9524 13.8494 69.9524 15.3257C69.9524 16.6917 71.0787 17.3927 72.6381 17.3927C74.936 17.3927 76.274 15.8604 76.274 14.1811Z" fill="#101828"/>
<path d="M80.5341 12.2708C80.5341 7.94262 83.1182 4.93408 87.1138 4.93408C90.335 4.93408 92.6698 6.83564 92.9647 9.69629H90.279C89.9841 8.36704 88.913 7.26006 87.1593 7.26006C84.8518 7.26006 83.3204 9.17037 83.3204 12.2069C83.3204 15.2435 84.8246 17.2456 87.1593 17.2456C88.7371 17.2456 89.9281 16.3408 90.279 14.8094H92.9647C92.6601 17.5686 90.4917 19.5804 87.141 19.5804C83.0246 19.5804 80.5332 16.5438 80.5332 12.2708H80.5341Z" fill="#101828"/>
<path d="M97.2001 19.294H94.4409V0.393066H97.1633V7.42525H97.3383C98.0025 5.89297 99.3318 4.93301 101.538 4.93301C104.455 4.93301 106.392 6.74181 106.392 10.2763V19.2931H103.633V10.6097C103.633 8.53311 102.498 7.32461 100.596 7.32461C98.6947 7.32461 97.2001 8.61711 97.2001 10.8775V19.294Z" fill="#101828"/>
<path d="M117.443 5.11865H120.212V19.2942H117.498V16.8395H117.35C116.695 18.3534 115.246 19.4788 113.114 19.4788C110.392 19.4788 108.463 17.6516 108.463 14.1355V5.11865H111.222V13.803C111.222 15.7317 112.403 16.9682 114.111 16.9682C115.661 16.9682 117.452 15.8236 117.442 13.4153V5.11865H117.443Z" fill="#101828"/>
<path d="M128.905 7.33321H125.998V15.132C125.998 16.729 126.802 17.0239 127.697 17.0239C128.14 17.0239 128.481 16.9408 128.666 16.904L129.164 19.1836C128.841 19.3035 128.251 19.4698 127.374 19.4794C125.196 19.5258 123.23 18.2796 123.239 15.7051V7.33321H121.163V5.11837H123.239V1.72217H125.998V5.11837H128.905V7.33321Z" fill="#101828"/>
<path d="M129.172 12.2988C129.172 7.94262 131.774 4.93408 135.725 4.93408C138.936 4.93408 142.001 6.93715 142.001 12.059V13.0374H131.922C131.996 15.7694 133.583 17.3008 135.946 17.3008C137.515 17.3008 138.715 16.6182 139.213 15.2793L141.825 15.7501C141.197 18.0577 139.01 19.5804 135.918 19.5804C131.738 19.5804 129.172 16.7013 129.172 12.2988V12.2988ZM139.296 10.9695C139.287 8.80108 137.883 7.21368 135.743 7.21368C133.602 7.21368 132.042 8.95772 131.931 10.9695H139.296V10.9695Z" fill="#101828"/>
</g>
<defs>
<clipPath id="clip0_358_64497">
<rect width="142" height="19.2142" fill="white" transform="translate(0 0.393066)"/>
</clipPath>
</defs>
</svg>
